<?xml version="1.0" standalone="no"?>
<!DOCTYPE svg PUBLIC "-//W3C//DTD SVG 20010904//EN"
 "http://www.w3.org/TR/2001/REC-SVG-20010904/DTD/svg10.dtd">
<svg version="1.0" xmlns="http://www.w3.org/2000/svg"
 width="185.000000pt" height="54.000000pt" viewBox="0 0 185.000000 54.000000"
 preserveAspectRatio="xMidYMid meet">
<metadata>
Created by potrace 1.10, written by Peter Selinger 2001-2011
</metadata>
<g transform="translate(0.000000,54.000000) scale(0.100000,-0.100000)"
fill="#000000" stroke="none">
<path d="M183 531 c-85 -21 -153 -96 -160 -178 -6 -60 10 -122 40 -154 22 -25
25 -59 5 -59 -7 0 -7 -4 -1 -13 6 -6 13 -29 16 -50 6 -38 6 -38 -16 -25 -12 8
-28 18 -36 23 -12 7 -11 10 4 15 21 7 31 65 13 76 -16 10 -19 -2 -9 -29 9 -23
7 -28 -16 -40 l-26 -14 59 -37 c53 -33 59 -35 62 -18 3 17 7 18 50 7 51 -14
143 -5 167 15 10 8 15 8 21 -2 4 -7 4 -10 -1 -6 -9 9 -35 -9 -35 -24 0 -5 25
8 55 29 46 32 52 40 40 49 -12 9 -13 17 -5 38 13 35 13 43 -2 28 -16 -16 -20
-52 -8 -67 8 -9 4 -17 -15 -29 l-25 -16 7 32 c3 18 10 38 14 44 5 6 0 16 -11
24 -18 13 -18 15 10 47 55 62 63 142 24 221 -25 51 -98 112 -133 112 -9 0 -25
2 -36 4 -11 3 -34 1 -52 -3z m155 -48 c93 -75 102 -210 20 -299 -13 -14 -16
-24 -9 -29 6 -3 11 -23 11 -45 0 -35 -3 -39 -40 -54 -40 -16 -141 -22 -154 -9
-13 13 -51 10 -64 -6 -11 -14 -11 -13 -2 7 8 16 8 22 -1 22 -7 0 -10 18 -7 55
3 41 0 59 -10 68 -24 19 -52 89 -52 130 0 72 50 153 115 183 20 10 52 13 93
10 52 -3 70 -9 100 -33z"/>
<path d="M178 495 c-4 -4 -4 -14 -1 -23 5 -14 3 -15 -8 -4 -14 13 -59 17 -59
4 0 -4 5 -13 12 -20 7 -7 9 -13 5 -13 -4 -1 -11 -3 -17 -4 -5 -1 -13 -3 -17
-4 -4 0 1 -7 9 -13 14 -11 15 -21 8 -57 -6 -32 -4 -56 6 -85 13 -36 13 -42 0
-52 -10 -7 -14 -24 -13 -49 3 -53 32 -70 119 -70 66 0 84 -7 52 -19 -17 -6
-10 -26 9 -26 8 0 8 3 -1 9 -11 7 -11 9 2 14 9 4 16 -1 19 -11 3 -11 5 -9 6 7
0 13 -7 30 -16 38 -17 14 -17 14 0 9 21 -7 64 18 49 28 -6 3 -27 -1 -48 -10
-43 -18 -110 -15 -159 7 l-30 13 50 6 50 5 3 43 c3 33 7 42 22 42 26 0 36 -37
16 -59 -21 -23 -11 -31 39 -31 51 0 61 11 64 67 3 74 -42 124 -99 111 -10 -2
-13 8 -11 40 1 24 -2 49 -8 56 -8 10 -7 17 4 26 8 7 15 16 15 21 0 15 -25 5
-32 -13 -10 -24 -26 -23 -30 3 -2 11 -6 18 -10 14z m-18 -35 c0 -6 6 -10 13
-9 37 5 45 -2 49 -42 3 -36 1 -42 -20 -50 -13 -5 -37 -9 -53 -9 -24 0 -30 4
-27 18 3 12 12 16 32 14 36 -4 59 5 51 18 -5 8 -11 8 -20 0 -10 -8 -19 -8 -34
2 -23 14 -28 28 -10 28 6 0 9 9 6 20 -3 11 -1 20 4 20 5 0 9 -5 9 -10z m70
-120 c0 -5 17 -10 39 -10 22 0 44 -6 51 -15 7 -8 8 -15 3 -15 -5 0 -9 -26 -9
-57 l1 -58 -38 0 c-33 -1 -36 1 -21 12 11 8 15 21 12 37 -3 15 -1 23 4 20 6
-4 8 -19 6 -35 -3 -16 -1 -29 4 -29 14 0 9 58 -8 74 -35 36 -89 8 -82 -42 4
-31 3 -32 -29 -32 -20 0 -32 4 -28 10 3 6 2 10 -4 10 -5 0 -12 -5 -14 -10 -3
-6 -4 -5 -3 2 2 7 11 13 22 13 15 0 19 7 17 34 0 18 -7 38 -14 45 -9 8 -10 7
-4 -9 15 -40 16 -59 1 -26 -30 63 -24 69 87 90 4 0 7 -3 7 -9z m-69 -218 c-7
-2 -18 1 -23 6 -8 8 -4 9 13 5 13 -4 18 -8 10 -11z m77 -9 c-10 -2 -28 -2 -40
0 -13 2 -5 4 17 4 22 1 32 -1 23 -4z"/>
<path d="M130 91 c0 -6 0 -14 0 -18 0 -13 36 -11 55 3 17 12 16 13 -1 12 -11
0 -27 3 -36 7 -11 4 -18 3 -18 -4z"/>
<path d="M223 83 c-18 -7 -16 -30 2 -30 8 0 15 9 15 19 0 10 -1 18 -2 17 -2 0
-9 -3 -15 -6z"/>
<path d="M460 515 c0 -8 5 -15 10 -15 6 0 10 -50 10 -130 0 -80 -4 -130 -10
-130 -5 0 -10 -4 -10 -10 0 -6 27 -10 60 -10 l60 0 0 139 c0 117 2 140 16 145
33 13 0 26 -67 26 -55 0 -69 -3 -69 -15z m102 -142 l-3 -138 -32 -2 -32 -3 0
140 0 140 35 0 35 0 -3 -137z"/>
<path d="M700 521 c0 -6 5 -13 10 -16 6 -4 10 -60 10 -136 0 -79 -4 -129 -10
-129 -5 0 -10 -4 -10 -10 0 -6 32 -10 75 -10 70 0 95 10 60 24 -12 4 -15 30
-15 146 l0 140 -60 0 c-33 0 -60 -4 -60 -9z m101 -48 c0 -21 1 -84 2 -140 l2
-103 -35 0 -35 0 0 140 0 140 33 0 c30 0 32 -2 33 -37z"/>
<path d="M840 517 c0 -8 7 -17 15 -21 11 -4 15 -21 15 -60 0 -35 -5 -60 -15
-70 -35 -35 -9 -46 50 -22 42 18 57 45 53 98 -3 46 -31 73 -85 84 -26 5 -33 3
-33 -9z m63 -18 c30 -16 37 -28 37 -69 0 -43 -8 -56 -40 -68 l-25 -10 0 79 c0
44 1 79 3 79 2 0 13 -5 25 -11z"/>
<path d="M1078 518 c-4 -11 21 -138 36 -186 7 -21 5 -23 -20 -20 -15 2 -29 -2
-31 -9 -3 -7 9 -13 29 -15 25 -2 34 -8 36 -25 2 -13 -1 -23 -7 -23 -6 0 -11
-4 -11 -10 0 -6 30 -10 70 -10 68 0 80 5 61 25 -7 8 -71 260 -71 281 0 10 -89
3 -92 -8z m58 -14 c14 -4 24 -16 28 -37 3 -18 16 -78 29 -135 l24 -102 -33 2
c-26 2 -33 7 -37 27 -3 15 -15 69 -26 121 -29 135 -29 136 15 124z"/>
<path d="M1276 521 c-3 -5 1 -14 9 -21 22 -18 22 -248 0 -256 -35 -14 -10 -24
60 -24 70 0 95 10 60 24 -12 4 -15 30 -15 146 l0 140 -54 0 c-30 0 -57 -4 -60
-9z m94 -149 l5 -132 -30 0 -30 0 0 127 c0 127 5 146 35 140 12 -2 16 -27 20
-135z"/>
<path d="M1410 523 c0 -6 7 -16 15 -23 10 -8 15 -31 15 -72 0 -43 -4 -60 -15
-64 -20 -8 -19 -34 0 -34 24 0 79 25 94 44 24 29 19 93 -10 121 -26 26 -99 46
-99 28z m92 -47 c14 -20 8 -79 -9 -98 -30 -33 -38 -21 -38 56 0 71 1 74 20 64
11 -6 23 -16 27 -22z"/>
<path d="M1566 521 c-3 -5 1 -14 9 -21 22 -18 22 -248 0 -256 -35 -14 -10 -24
60 -24 70 0 95 10 60 24 -12 4 -15 30 -15 146 l0 140 -54 0 c-30 0 -57 -4 -60
-9z m90 -25 c2 -6 5 -68 6 -139 l3 -127 -30 0 -30 0 0 139 -1 139 24 0 c13 0
25 -6 28 -12z"/>
<path d="M1700 517 c0 -8 7 -17 15 -21 11 -4 15 -21 15 -66 0 -45 -4 -62 -15
-66 -20 -8 -19 -34 0 -34 30 0 83 29 95 50 20 38 15 90 -12 117 -30 29 -98 44
-98 20z m83 -35 c22 -19 22 -79 0 -104 -30 -33 -38 -21 -38 56 0 75 2 78 38
48z"/>
<path d="M1051 420 c-7 -25 -19 -70 -28 -100 -8 -30 -23 -62 -34 -72 -28 -24
-24 -28 26 -28 48 0 55 6 29 24 -14 10 -13 19 6 89 12 42 20 90 18 105 -3 24
-5 22 -17 -18z"/>
<path d="M656 296 c-8 -19 -24 -39 -35 -46 -33 -17 -25 -30 18 -30 l39 0 4 51
c4 62 -6 72 -26 25z m7 -46 c-3 -11 -9 -17 -15 -14 -5 3 -4 12 3 20 16 19 18
18 12 -6z"/>
<path d="M778 203 c195 -2 510 -2 700 0 191 1 32 2 -353 2 -385 0 -541 -1
-347 -2z"/>
<path d="M458 123 c6 -2 12 -15 12 -28 0 -13 -6 -26 -12 -28 -7 -3 8 -6 35 -6
26 -1 47 3 47 8 0 5 -9 7 -19 4 -16 -4 -19 -1 -14 19 4 12 11 26 17 30 6 4 -9
7 -34 7 -25 0 -39 -3 -32 -6z"/>
<path d="M582 118 c-20 -20 -14 -47 13 -54 31 -8 53 0 62 22 12 32 -49 58 -75
32z m38 -25 c0 -20 -3 -24 -11 -16 -7 7 -9 19 -6 27 10 24 17 19 17 -11z"/>
<path d="M676 122 c7 -4 13 -16 15 -26 2 -10 12 -24 22 -30 21 -13 50 2 56 30
2 10 8 22 15 26 6 4 -18 8 -54 8 -36 0 -60 -4 -54 -8z m82 -24 c-2 -13 -7 -23
-13 -23 -5 0 -11 10 -13 23 -2 15 2 22 13 22 11 0 15 -7 13 -22z"/>
<path d="M812 121 c-19 -12 -11 -55 12 -59 10 -2 23 2 30 9 8 9 8 10 0 6 -14
-8 -27 20 -18 35 4 6 10 5 15 -3 7 -11 9 -10 9 4 0 18 -26 23 -48 8z"/>
<path d="M898 104 c3 -16 -1 -30 -9 -35 -10 -6 -4 -9 19 -9 22 0 32 5 32 15 0
8 5 15 11 15 6 0 9 -7 5 -15 -4 -12 2 -15 27 -14 18 0 26 3 20 6 -7 2 -13 15
-13 28 0 13 6 26 13 28 6 3 -16 6 -49 6 -61 1 -61 1 -56 -25z m62 6 c0 -5 -4
-10 -10 -10 -5 0 -10 5 -10 10 0 6 5 10 10 10 6 0 10 -4 10 -10z"/>
<path d="M1059 112 c-41 -49 -41 -48 14 -49 29 -1 46 1 40 4 -7 2 -13 10 -13
16 0 7 -7 20 -14 29 -12 17 -14 17 -27 0z"/>
<path d="M1148 123 c6 -2 12 -15 12 -28 0 -13 -6 -26 -12 -28 -7 -3 5 -5 27
-5 22 0 34 2 27 5 -10 4 -8 9 8 20 29 21 9 43 -39 42 -20 0 -30 -3 -23 -6z
m62 -18 c0 -8 -4 -15 -10 -15 -5 0 -10 7 -10 15 0 8 5 15 10 15 6 0 10 -7 10
-15z"/>
<path d="M1267 99 c-15 -18 -25 -34 -21 -38 3 -3 11 2 18 12 16 21 30 23 22 2
-4 -11 2 -15 24 -15 l29 0 -20 35 c-12 19 -22 35 -23 35 -1 0 -14 -14 -29 -31z"/>
<path d="M1360 114 c0 -14 3 -15 12 -6 19 19 28 14 28 -12 0 -15 -7 -26 -17
-29 -10 -3 5 -5 32 -5 28 0 42 2 33 5 -11 3 -18 14 -18 29 0 27 9 30 29 12 11
-11 13 -10 9 2 -3 10 -21 16 -56 18 -44 3 -52 0 -52 -14z"/>
<path d="M1498 123 c6 -2 12 -15 12 -28 0 -13 -6 -26 -12 -28 -7 -3 16 -5 52
-5 36 0 59 2 53 5 -7 2 -13 15 -13 28 0 13 6 26 13 28 6 3 -17 5 -53 5 -36 0
-59 -2 -52 -5z m62 -13 c0 -5 -4 -10 -10 -10 -5 0 -10 5 -10 10 0 6 5 10 10
10 6 0 10 -4 10 -10z m0 -30 c0 -5 -4 -10 -10 -10 -5 0 -10 5 -10 10 0 6 5 10
10 10 6 0 10 -4 10 -10z"/>
<path d="M1647 97 l-25 -33 49 -2 48 -2 -20 35 c-12 19 -22 35 -24 35 -1 0
-14 -15 -28 -33z m23 -17 c0 -5 -2 -10 -4 -10 -3 0 -8 5 -11 10 -3 6 -1 10 4
10 6 0 11 -4 11 -10z"/>
<path d="M1748 123 c6 -2 12 -15 12 -28 0 -13 -6 -26 -12 -28 -7 -3 5 -5 27
-5 22 0 34 2 27 5 -10 4 -8 9 7 19 32 23 16 44 -33 43 -22 0 -35 -3 -28 -6z
m62 -18 c0 -8 -4 -15 -10 -15 -5 0 -10 7 -10 15 0 8 5 15 10 15 6 0 10 -7 10
-15z"/>
</g>
</svg>
