<?xml version="1.0" standalone="no"?>
<!DOCTYPE svg PUBLIC "-//W3C//DTD SVG 20010904//EN"
 "http://www.w3.org/TR/2001/REC-SVG-20010904/DTD/svg10.dtd">
<svg version="1.0" xmlns="http://www.w3.org/2000/svg"
 width="300.000000pt" height="94.000000pt" viewBox="0 0 300.000000 94.000000"
 preserveAspectRatio="xMidYMid meet">
<metadata>
Created by potrace 1.10, written by Peter Selinger 2001-2011
</metadata>
<g transform="translate(0.000000,94.000000) scale(0.100000,-0.100000)"
fill="#f2e7f1" stroke="none">
<path d="M320 905 c-83 -24 -122 -46 -175 -99 -59 -58 -82 -98 -101 -171 -24
-87 -13 -191 28 -270 51 -98 164 -176 285 -197 169 -29 341 67 412 229 20 47
25 75 25 143 1 75 -3 93 -30 150 -39 83 -81 131 -147 169 -102 58 -203 73
-297 46z m150 -16 c239 -38 369 -299 259 -520 -28 -56 -99 -123 -165 -154 -51
-25 -71 -29 -149 -29 -80 -1 -97 3 -149 28 -80 39 -132 88 -169 160 -29 56
-31 69 -32 161 0 89 3 106 27 155 50 102 153 182 257 200 25 4 48 8 51 9 3 0
34 -4 70 -10z"/>
<path d="M390 831 c0 -7 -4 -10 -9 -7 -5 3 -11 -3 -14 -14 -7 -26 -37 -26 -44
0 -3 11 -9 20 -14 20 -5 0 -6 -7 -3 -15 8 -19 -17 -20 -63 -3 -28 10 -36 10
-50 -4 -22 -23 -1 -50 32 -42 13 3 26 0 31 -7 5 -9 2 -10 -10 -6 -21 8 -56 -9
-56 -27 0 -8 14 -19 31 -25 l31 -11 -30 -35 c-17 -19 -36 -51 -41 -72 -9 -33
-7 -45 19 -101 42 -89 47 -125 21 -151 -36 -36 -18 -51 65 -51 l73 0 3 77 3
78 37 12 c47 15 93 1 102 -30 12 -45 6 -72 -16 -82 -13 -6 -23 -19 -23 -30 0
-18 8 -20 93 -23 l94 -3 -4 130 c-3 120 -5 132 -26 153 -19 20 -34 23 -100 24
-42 1 -91 4 -109 8 l-32 7 2 74 c1 46 -2 78 -10 86 -9 9 -7 18 9 40 12 16 19
32 15 36 -4 3 -7 1 -7 -6z m-165 -31 c-3 -5 -13 -10 -21 -10 -8 0 -12 5 -9 10
3 6 13 10 21 10 8 0 12 -4 9 -10z m40 -10 c3 -5 19 -7 34 -4 47 10 71 -23 71
-96 0 -57 -2 -61 -32 -80 -35 -22 -128 -25 -135 -5 -1 6 11 26 27 45 36 42 36
44 8 58 -17 8 -18 11 -7 11 9 1 22 -6 29 -14 9 -11 8 -21 -10 -47 l-22 -33 31
33 c38 40 38 47 4 66 l-28 15 29 1 30 0 -29 30 c-16 17 -24 30 -17 30 6 0 14
-4 17 -10z m-35 -54 c0 -2 -7 -7 -16 -10 -8 -3 -12 -2 -9 4 6 10 25 14 25 6z
m266 -158 c122 5 138 -17 128 -180 l-7 -108 -53 0 c-47 0 -54 2 -54 20 0 11 7
20 15 20 10 0 15 10 15 30 0 80 -63 123 -146 100 l-44 -13 0 -78 0 -79 -50 0
c-43 0 -50 3 -50 20 0 12 7 20 16 20 22 0 13 57 -22 146 -34 83 -42 78 -10 -7
31 -84 41 -129 27 -129 -6 0 -11 15 -11 34 0 18 -13 57 -29 87 -15 30 -31 64
-35 76 -7 22 -6 23 51 17 46 -4 65 -1 93 14 25 15 45 18 70 14 19 -4 63 -5 96
-4z m-226 -8 c0 -5 -4 -10 -10 -10 -5 0 -10 5 -10 10 0 6 5 10 10 10 6 0 10
-4 10 -10z m257 -217 c-3 -10 -5 -2 -5 17 0 19 2 27 5 18 2 -10 2 -26 0 -35z
m110 -30 c-2 -16 -4 -5 -4 22 0 28 2 40 4 28 2 -13 2 -35 0 -50z m-401 -30
c-11 -11 -19 6 -11 24 8 17 8 17 12 0 3 -10 2 -21 -1 -24z m264 22 c0 -8 -4
-15 -10 -15 -5 0 -10 7 -10 15 0 8 5 15 10 15 6 0 10 -7 10 -15z"/>
<path d="M310 760 c20 -13 33 -13 25 0 -3 6 -14 10 -23 10 -15 0 -15 -2 -2
-10z"/>
<path d="M870 798 c0 -4 9 -12 20 -18 19 -10 20 -21 20 -162 0 -142 -1 -153
-22 -175 l-21 -23 156 0 c86 0 157 2 157 5 0 2 -9 19 -20 37 -20 32 -21 32
-14 6 6 -26 4 -28 -27 -28 -23 0 -29 3 -21 9 8 4 14 12 15 17 1 5 6 8 11 6 5
-2 6 4 2 13 -3 9 -2 14 3 10 5 -3 11 0 13 7 5 13 48 -56 48 -77 0 -12 -30 -15
-157 -18 l-158 -3 166 -2 c140 -2 168 0 173 13 7 20 -45 104 -66 105 -9 0 -18
6 -21 13 -3 6 -10 -1 -17 -18 -18 -47 -40 -65 -77 -65 l-33 0 0 152 c0 126 3
154 16 170 14 14 14 18 3 22 -26 9 -149 12 -149 4z m110 -18 c-8 -5 -10 -10
-5 -10 6 0 10 -62 10 -165 l0 -165 -30 0 -30 0 3 161 c2 95 -1 165 -6 172 -8
9 1 13 31 15 31 1 38 -1 27 -8z"/>
<path d="M1230 799 c0 -4 7 -12 15 -19 20 -17 22 -150 2 -150 -8 0 -22 -9 -33
-21 -16 -17 -16 -22 -4 -30 8 -5 23 -7 33 -5 15 4 17 -4 17 -59 0 -47 -4 -64
-15 -69 -36 -13 -10 -26 58 -28 l72 -2 -70 -6 -70 -6 89 -2 90 -2 -27 28 c-23
24 -27 36 -27 90 l0 62 55 0 c91 0 145 41 145 108 0 80 -54 109 -218 114 -61
1 -112 0 -112 -3z m71 -29 c6 0 7 5 4 10 -3 6 -2 10 3 10 14 0 25 -37 31 -112
5 -52 3 -69 -8 -73 -9 -4 -10 -9 -3 -18 6 -7 12 -41 13 -76 3 -69 -3 -78 -44
-67 -21 5 -22 10 -20 88 1 46 2 124 3 173 1 50 4 84 7 78 2 -7 9 -13 14 -13z
m94 0 c4 -6 -8 -10 -30 -10 -22 0 -34 4 -30 10 3 6 17 10 30 10 13 0 27 -4 30
-10z m69 -4 c37 -6 50 -25 48 -68 -3 -51 -19 -70 -64 -74 -30 -3 -31 -2 -11 8
26 13 47 59 38 87 -3 11 -20 29 -38 41 -26 17 -27 20 -8 15 13 -4 29 -8 35 -9z
m-22 -33 c36 -33 9 -86 -49 -98 l-33 -7 0 61 0 61 32 0 c17 0 40 -7 50 -17z
m98 -44 c0 -70 -45 -100 -147 -98 l-68 2 79 8 c95 10 121 29 118 84 -2 19 2
35 8 35 5 0 10 -14 10 -31z m-286 -100 c-31 -12 -40 -9 -20 6 10 8 24 11 29 8
6 -4 2 -10 -9 -14z"/>
<path d="M1880 800 c0 -4 5 -11 11 -17 9 -9 8 -23 -2 -58 -12 -39 -17 -45 -34
-41 -16 4 -26 -2 -39 -24 -18 -32 -15 -50 10 -50 8 0 14 -6 14 -12 0 -28 -51
-120 -82 -148 l-32 -30 79 -2 80 -2 -75 -6 -75 -6 93 -2 92 -2 -25 39 c-21 32
-25 45 -18 70 5 18 13 31 18 29 16 -5 53 -46 47 -52 -3 -3 1 -6 10 -6 8 0 20
11 26 25 16 34 27 31 39 -9 9 -29 8 -37 -10 -55 l-21 -21 84 -2 85 -2 -75 -6
-75 -6 100 -2 100 -2 -38 33 c-25 21 -45 53 -62 96 l-24 63 29 -6 c35 -6 37 2
14 47 -20 38 -33 48 -55 41 -13 -3 -21 7 -33 42 -15 44 -15 49 1 66 21 23 6
24 -20 1 -19 -17 -20 -17 -9 2 10 19 7 20 -59 20 -38 0 -69 -2 -69 -5z m87
-26 c11 -3 24 -16 28 -27 4 -12 8 -24 10 -27 1 -3 6 -14 10 -25 12 -28 31 -45
49 -45 8 0 18 -4 21 -10 3 -5 0 -10 -8 -10 -23 0 -29 -29 -13 -63 8 -18 21
-50 29 -72 l15 -40 -28 -1 c-24 -1 -29 4 -34 31 -6 32 -37 70 -48 60 -3 -3
-17 -8 -32 -11 -31 -5 -35 11 -6 26 32 17 41 44 28 82 -16 47 -38 71 -54 57
-16 -13 -58 -82 -45 -74 17 10 7 -50 -10 -62 -19 -14 -42 -73 -29 -73 4 0 6
-9 3 -21 -3 -11 -11 -18 -19 -15 -7 3 -15 0 -17 -7 -2 -7 -7 -9 -11 -6 -4 4 7
34 25 69 19 38 29 71 26 86 -2 13 1 24 7 25 6 0 2 4 -9 9 -19 8 -19 9 3 9 15
1 26 8 29 21 3 11 9 20 14 20 5 0 9 11 9 23 0 13 3 27 8 31 4 4 8 12 8 17 1 5
2 14 3 19 1 11 7 12 38 4z m1 -181 c-8 -10 -15 -7 -29 11 -22 28 -22 27 -8 63
l11 28 18 -45 c12 -31 15 -49 8 -57z m135 10 c-7 -2 -21 -2 -30 0 -10 3 -4 5
12 5 17 0 24 -2 18 -5z m-163 -24 c0 -14 -17 -10 -23 5 -4 10 -1 13 9 9 7 -3
14 -9 14 -14z m30 -59 c0 -5 -5 -10 -11 -10 -5 0 -7 5 -4 10 3 6 8 10 11 10 2
0 4 -4 4 -10z"/>
<path d="M2230 799 c0 -4 7 -12 15 -19 11 -9 15 -32 15 -79 0 -65 -1 -67 -31
-78 -40 -15 -37 -48 4 -48 26 1 27 -1 27 -57 0 -47 -4 -60 -20 -70 -34 -22
-23 -28 53 -30 l72 -2 -70 -6 -70 -6 88 -2 88 -2 -25 33 c-20 26 -24 42 -23
87 l2 55 66 5 c37 3 76 12 91 22 34 22 52 76 40 120 -13 53 -72 75 -210 80
-62 1 -112 0 -112 -3z m78 -36 c11 -11 18 -35 19 -71 0 -29 4 -56 7 -59 3 -3
-2 -12 -10 -20 -9 -9 -12 -22 -8 -32 4 -9 8 -45 10 -81 2 -36 1 -59 -2 -53 -4
9 -11 10 -23 4 -19 -11 -18 -19 -20 154 -1 195 -2 188 27 158z m82 7 c0 -5
-13 -10 -30 -10 -16 0 -30 5 -30 10 0 6 14 10 30 10 17 0 30 -4 30 -10z m70
-5 c7 -8 16 -12 21 -9 5 3 9 0 9 -6 0 -7 9 -9 23 -5 17 5 19 4 7 -4 -8 -6 -11
-11 -7 -11 5 0 5 -6 0 -12 -4 -7 -8 -17 -8 -23 0 -14 -36 -65 -46 -65 -4 0 -1
12 7 28 20 38 18 55 -11 86 -14 15 -25 29 -25 32 0 9 18 3 30 -11z m-29 -25
c19 -11 26 -54 11 -77 -8 -13 -55 -33 -77 -33 -9 0 -13 17 -14 60 l-1 60 31 0
c17 0 39 -5 50 -10z m99 -90 c-21 -40 -69 -60 -140 -59 l-65 2 71 7 c39 4 80
14 92 21 23 14 41 49 43 82 2 17 3 16 6 -5 2 -15 -1 -36 -7 -48z m-286 -60
c-10 -4 -21 -6 -24 -3 -8 7 24 22 34 16 5 -4 1 -10 -10 -13z"/>
<path d="M2590 797 c0 -4 7 -10 15 -13 21 -8 22 -154 2 -154 -8 0 -22 -9 -33
-21 -16 -17 -16 -22 -4 -30 8 -5 23 -7 33 -5 15 4 17 -4 17 -56 0 -50 -4 -63
-22 -79 -23 -18 -23 -18 57 -20 l80 -3 -70 -6 -70 -6 89 -2 90 -2 -27 28 c-23
24 -27 37 -27 89 l0 61 71 4 c65 3 74 6 100 36 31 34 39 85 19 122 -20 37 -90
58 -209 62 -61 1 -111 -1 -111 -5z m89 -39 c6 -13 11 -34 11 -48 -1 -14 1 -40
3 -58 2 -18 -2 -37 -9 -43 -10 -8 -9 -16 1 -36 9 -17 11 -33 4 -49 -4 -13 -5
-24 0 -24 4 0 7 -10 6 -22 -2 -22 -29 -47 -40 -36 -3 3 -7 80 -8 172 -2 167 4
195 32 144z m81 12 c0 -5 -16 -10 -36 -10 -21 0 -33 4 -29 10 3 6 19 10 36 10
16 0 29 -4 29 -10z m97 -23 c7 -5 17 -6 24 -2 8 6 8 2 0 -13 -6 -11 -11 -29
-11 -40 0 -22 -35 -70 -44 -61 -4 3 0 18 8 33 17 34 11 58 -22 91 l-26 26 29
-12 c17 -7 35 -17 42 -22z m-55 -14 c36 -33 9 -86 -49 -98 l-33 -7 0 61 0 61
32 0 c17 0 40 -7 50 -17z m95 -45 c-3 -7 -5 -2 -5 12 0 14 2 19 5 13 2 -7 2
-19 0 -25z m1 -34 c-7 -37 -55 -59 -136 -61 l-77 -2 73 9 c75 8 122 30 122 55
0 8 5 15 11 15 6 0 9 -7 7 -16z m-273 -54 c3 -5 2 -10 -4 -10 -5 0 -18 -3 -28
-7 -16 -6 -16 -5 -4 10 15 19 27 22 36 7z"/>
<path d="M770 340 c0 -7 378 -10 1115 -10 737 0 1115 3 1115 10 0 7 -378 10
-1115 10 -737 0 -1115 -3 -1115 -10z"/>
<path d="M885 195 l0 -85 73 0 c47 0 71 4 67 10 -4 6 -11 7 -17 4 -7 -5 -9 -1
-5 9 3 8 0 18 -8 20 -7 3 -15 -3 -18 -14 -3 -11 -14 -19 -27 -19 -21 0 -22 3
-18 80 3 80 3 80 -22 80 -25 0 -25 -1 -25 -85z"/>
<path d="M1050 260 c-29 -29 -28 -99 3 -128 29 -27 78 -29 101 -3 36 39 25
134 -17 145 -40 11 -67 6 -87 -14z m45 0 c-18 -8 -17 -9 7 -9 23 -1 28 -7 34
-35 10 -58 -32 -120 -54 -79 -15 27 -22 82 -11 89 5 3 9 10 9 15 0 6 -6 7 -12
3 -9 -5 -9 -2 1 9 7 9 21 17 30 16 12 0 11 -2 -4 -9z"/>
<path d="M1198 273 c8 -3 12 -26 12 -64 0 -81 11 -99 60 -99 49 0 56 13 62
103 4 65 3 67 -20 67 -16 0 -21 -4 -15 -12 12 -19 3 -121 -11 -136 -11 -11
-16 -10 -31 4 -14 14 -16 30 -13 81 l4 63 -31 -1 c-16 0 -24 -3 -17 -6z"/>
<path d="M1382 257 c-30 -32 -30 -98 0 -127 30 -28 82 -27 102 2 20 28 20 38
1 38 -8 0 -15 -7 -15 -15 0 -18 -32 -36 -48 -26 -7 4 -17 22 -22 40 -17 59 33
120 59 74 10 -19 27 -11 33 16 2 10 -10 15 -42 18 -38 3 -49 0 -68 -20z"/>
<path d="M1528 273 c18 -7 15 -64 -5 -79 -17 -13 -17 -13 0 -14 19 0 24 -39 6
-57 -8 -8 0 -12 25 -15 34 -4 47 4 27 16 -5 3 -11 19 -13 35 -4 26 -2 29 21
27 29 -3 41 -37 21 -62 -11 -12 -7 -14 21 -14 l34 0 -3 85 -3 85 -32 -1 c-18
0 -26 -3 -19 -6 6 -2 12 -20 12 -39 0 -30 -3 -34 -26 -34 -25 0 -26 2 -21 40
5 39 5 40 -26 39 -18 0 -26 -3 -19 -6z"/>
<path d="M1748 272 c16 -11 6 -39 -20 -53 -14 -8 -17 -14 -9 -23 12 -14 -7
-62 -30 -76 -6 -4 7 -9 30 -12 26 -2 37 0 31 6 -13 13 -13 46 -1 46 6 0 13 -5
16 -11 5 -6 12 -4 21 8 13 17 13 17 15 -2 1 -11 2 -26 2 -33 -1 -6 10 -12 22
-12 13 0 32 -3 42 -6 17 -5 17 -5 1 8 -10 8 -22 27 -27 41 -9 22 -8 27 5 27
12 0 13 4 4 20 -6 11 -17 20 -24 20 -18 0 -27 35 -13 49 8 8 -2 11 -33 11 -27
0 -40 -4 -32 -8z m42 -84 c0 -4 -7 -8 -15 -8 -10 0 -15 10 -15 28 1 26 1 26
15 8 8 -11 15 -23 15 -28z"/>
<path d="M1908 244 c3 -26 -1 -39 -14 -50 -19 -14 -19 -14 0 -7 16 5 18 2 15
-35 -4 -39 -3 -40 28 -44 18 -2 33 0 33 4 0 4 -4 8 -9 8 -5 0 -11 16 -13 35
-4 36 0 38 57 35 11 -1 35 29 35 44 0 22 -52 46 -97 46 -39 0 -39 0 -35 -36z
m65 19 c-7 -2 -19 -2 -25 0 -7 3 -2 5 12 5 14 0 19 -2 13 -5z m23 -25 c7 -10
-20 -38 -38 -38 -4 0 -8 11 -8 25 0 18 5 25 19 25 11 0 23 -5 27 -12z"/>
<path d="M2113 254 c0 -15 -7 -30 -14 -35 -8 -4 -14 -22 -15 -39 -1 -17 -9
-39 -18 -49 -16 -18 -15 -19 18 -23 38 -4 44 0 24 20 -19 19 6 40 27 22 12
-10 15 -10 15 4 0 10 5 14 11 10 6 -3 9 -17 7 -29 -4 -21 0 -24 34 -27 31 -3
36 -1 24 7 -8 7 -20 24 -25 38 -9 22 -8 27 4 27 22 0 18 14 -11 39 -17 15 -24
29 -21 42 4 16 0 19 -26 19 -27 0 -32 -4 -34 -26z m37 -60 c0 -8 -6 -14 -14
-14 -8 0 -13 9 -12 24 1 18 4 22 14 14 6 -6 12 -17 12 -24z m57 0 c-3 -3 -12
-4 -19 -1 -8 3 -5 6 6 6 11 1 17 -2 13 -5z"/>
<path d="M2247 260 c6 -22 40 -23 36 -2 -2 7 2 12 8 12 7 0 9 -27 7 -79 l-3
-79 33 -4 c34 -4 39 1 21 19 -6 6 -9 36 -7 72 2 35 -1 63 -7 65 -5 3 -3 5 5 5
8 1 21 -9 29 -21 14 -22 14 -22 21 -3 4 11 6 23 3 28 -2 4 -37 7 -78 7 -69 0
-73 -1 -68 -20z"/>
<path d="M2418 273 c18 -7 15 -64 -5 -79 -17 -13 -17 -13 0 -14 19 0 24 -39 6
-57 -8 -8 0 -12 25 -15 34 -4 47 4 27 16 -5 3 -11 19 -13 35 -4 26 -2 29 21
27 29 -3 41 -37 21 -62 -11 -12 -7 -14 21 -14 l34 0 -3 85 -3 85 -32 -1 c-18
0 -26 -3 -19 -6 6 -2 12 -20 12 -39 0 -30 -3 -34 -26 -34 -25 0 -26 2 -21 40
5 39 5 40 -26 39 -18 0 -26 -3 -19 -6z"/>
<path d="M2638 272 c16 -11 6 -39 -20 -53 -14 -8 -17 -14 -9 -23 12 -14 -7
-62 -30 -76 -6 -4 7 -9 30 -12 26 -2 37 0 31 6 -13 13 -13 46 -1 46 6 0 13 -5
17 -12 5 -7 11 -5 21 7 13 18 13 18 15 -1 0 -10 1 -25 1 -32 -1 -6 10 -12 22
-12 13 0 32 -3 42 -6 17 -5 17 -5 1 8 -10 8 -22 27 -27 41 -9 22 -8 27 5 27
12 0 13 4 4 20 -6 11 -17 20 -24 20 -18 0 -27 35 -13 49 8 8 -2 11 -33 11 -27
0 -40 -4 -32 -8z m42 -84 c0 -4 -7 -8 -15 -8 -10 0 -15 10 -15 28 1 26 1 26
15 8 8 -11 15 -23 15 -28z"/>
<path d="M2798 244 c3 -26 -1 -39 -14 -50 -19 -14 -19 -14 0 -7 16 5 18 2 15
-35 -4 -39 -3 -40 28 -44 18 -2 33 0 33 4 0 4 -4 8 -9 8 -5 0 -11 16 -13 35
-4 33 -2 35 24 35 15 0 31 0 34 -1 6 0 34 47 34 57 0 11 -65 34 -97 34 -39 0
-39 0 -35 -36z m65 19 c-7 -2 -19 -2 -25 0 -7 3 -2 5 12 5 14 0 19 -2 13 -5z
m23 -25 c7 -10 -20 -38 -38 -38 -4 0 -8 11 -8 25 0 18 5 25 19 25 11 0 23 -5
27 -12z"/>
<path d="M85 203 c28 -69 28 -73 5 -93 l-22 -19 77 -36 c43 -19 79 -35 81 -35
2 0 4 7 4 16 0 11 5 14 18 9 53 -22 86 -27 172 -27 59 1 111 7 138 16 36 13
42 13 42 1 0 -20 -2 -20 83 18 l74 32 -19 25 c-17 24 -18 28 -3 63 21 50 20
52 -19 28 -41 -26 -49 -26 -41 -2 5 18 2 18 -52 -4 -78 -32 -183 -49 -252 -41
-62 7 -145 32 -177 53 -20 13 -21 12 -17 -12 7 -31 -1 -31 -56 0 -36 21 -42
22 -36 8z m95 -92 c0 -20 6 -43 13 -50 10 -11 7 -12 -13 -6 -38 11 -80 34 -80
44 0 5 7 14 15 21 11 9 12 17 5 30 -18 34 -10 40 25 19 30 -18 35 -26 35 -58z
m109 48 c35 -10 91 -19 125 -20 52 0 170 23 229 46 15 6 17 1 17 -43 0 -28 -6
-54 -12 -60 -55 -44 -271 -66 -361 -36 -87 28 -97 37 -97 95 0 45 2 50 18 44
9 -4 46 -16 81 -26z m431 15 c0 -3 -5 -14 -11 -25 -8 -16 -7 -25 6 -39 9 -10
12 -21 7 -24 -20 -12 -63 -25 -58 -18 3 5 6 28 7 51 2 25 9 46 18 51 18 11 31
12 31 4z"/>
<path d="M580 152 c0 -11 -37 -25 -62 -23 -9 1 -19 -3 -23 -9 -5 -8 -11 -8
-21 1 -11 9 -14 9 -14 -1 0 -8 -10 -9 -30 -5 -19 4 -30 3 -30 -4 0 -6 12 -11
28 -12 26 0 26 -1 5 -9 -23 -9 -33 -50 -13 -50 5 0 7 7 3 16 -4 10 1 17 16 21
11 3 21 12 21 19 0 8 5 14 10 14 6 0 10 -8 10 -19 0 -10 7 -24 15 -31 17 -14
19 -7 6 19 -6 10 -6 23 -1 31 7 11 11 12 25 0 13 -11 18 -10 29 5 18 25 39 10
31 -22 -4 -17 -2 -23 6 -18 6 4 9 18 6 31 -2 13 0 25 6 27 5 1 2 9 -7 16 -9 7
-16 9 -16 3z"/>
<path d="M243 115 c-12 -39 -12 -39 47 -60 l41 -14 6 30 c4 23 10 28 24 24 15
-5 19 -1 19 17 0 16 -3 19 -9 10 -6 -10 -18 -9 -60 8 -28 11 -53 20 -55 20 -1
0 -7 -16 -13 -35z m30 -5 c-3 -11 -9 -20 -14 -20 -10 0 -11 12 -3 34 9 22 23
10 17 -14z m28 -3 c-13 -13 -26 -3 -16 12 3 6 11 8 17 5 6 -4 6 -10 -1 -17z
m29 -21 c0 -15 -18 -31 -26 -23 -7 7 7 37 17 37 5 0 9 -6 9 -14z m-35 -6 c-3
-5 -10 -10 -16 -10 -5 0 -9 5 -9 10 0 6 7 10 16 10 8 0 12 -4 9 -10z"/>
</g>
</svg>
